<?xml version="1.0" encoding="UTF-8"?>
<svg class="Zi Zi--Search" fill="#fff" viewBox="0 0 24 24" width="32" height="32" version="1.1" xmlns="http://www.w3.org/2000/svg" xmlns:xlink="http://www.w3.org/1999/xlink">
  <path d="M17.068 15.58a8.377 8.377 0 0 0 1.774-5.159 8.421 8.421 0 1 0-8.42 8.421 8.38 8.38 0 0 0 5.158-1.774l3.879 3.88c.957.573 2.131-.464 1.488-1.49l-3.879-3.878zm-6.647 1.157a6.323 6.323 0 0 1-6.316-6.316 6.323 6.323 0 0 1 6.316-6.316 6.323 6.323 0 0 1 6.316 6.316 6.323 6.323 0 0 1-6.316 6.316z" fill-rule="evenodd"></path>
</svg>
